<svg xmlns="http://www.w3.org/2000/svg" xmlns:xlink="http://www.w3.org/1999/xlink" width="50" zoomAndPan="magnify" viewBox="0 0 37.5 37.499999" height="50" preserveAspectRatio="xMidYMid meet" version="1.0"><defs><clipPath id="e616fdfc66"><path d="M 0 0 L 37.007812 0 L 37.007812 37.007812 L 0 37.007812 Z M 0 0 " clip-rule="nonzero"/></clipPath></defs><g clip-path="url(#e616fdfc66)"><path fill="#ffffff" d="M 0 0 L 37.5 0 L 37.5 45 L 0 45 Z M 0 0 " fill-opacity="1" fill-rule="nonzero"/><path fill="#ffffff" d="M 0 0 L 37.5 0 L 37.5 37.5 L 0 37.5 Z M 0 0 " fill-opacity="1" fill-rule="nonzero"/><path fill="#ffffff" d="M 0 0 L 37.5 0 L 37.5 37.5 L 0 37.5 Z M 0 0 " fill-opacity="1" fill-rule="nonzero"/></g><path fill="#051b54" d="M 31.703125 6.777344 C 25.066406 0.140625 14.449219 0.00390625 7.984375 6.46875 C 2.304688 12.144531 1.722656 21.027344 6.160156 27.601562 L 3.132812 35.78125 L 11.039062 32.429688 C 17.597656 36.746094 26.378906 36.125 32.011719 30.496094 C 38.476562 24.03125 38.339844 13.410156 31.703125 6.777344 Z M 31.703125 6.777344 " fill-opacity="1" fill-rule="nonzero"/><path fill="#ffffff" d="M 28.003906 22.335938 C 29.558594 23.273438 29.859375 23.203125 29.859375 24.152344 C 29.859375 25.015625 27.835938 27.820312 25.542969 27.824219 C 22.1875 27.820312 18.519531 25.757812 15.640625 22.957031 C 12.839844 20.078125 10.777344 16.410156 10.773438 13.054688 C 10.773438 10.761719 13.582031 8.738281 14.445312 8.738281 C 15.394531 8.738281 15.324219 9.039062 16.261719 10.59375 C 16.78125 11.457031 18.019531 13.082031 17.785156 13.6875 C 17.449219 14.550781 15.417969 15.566406 15.417969 16.1875 C 15.417969 18.25 20.347656 23.179688 22.410156 23.179688 C 23.027344 23.179688 24.042969 21.144531 24.910156 20.8125 C 25.515625 20.578125 27.140625 21.816406 28.003906 22.335938 Z M 28.003906 22.335938 " fill-opacity="1" fill-rule="nonzero"/></svg>