<svg xmlns="http://www.w3.org/2000/svg" xmlns:xlink="http://www.w3.org/1999/xlink" width="50" zoomAndPan="magnify" viewBox="0 0 37.5 37.499999" height="50" preserveAspectRatio="xMidYMid meet" version="1.0"><defs><clipPath id="2d6dd72599"><path d="M 1.011719 1.011719 L 36.261719 1.011719 L 36.261719 36.261719 L 1.011719 36.261719 Z M 1.011719 1.011719 " clip-rule="nonzero"/></clipPath></defs><g clip-path="url(#2d6dd72599)"><path fill="#051b54" d="M 18.636719 1.011719 C 8.902344 1.011719 1.011719 8.902344 1.011719 18.636719 C 1.011719 28.371094 8.902344 36.261719 18.636719 36.261719 C 28.371094 36.261719 36.261719 28.371094 36.261719 18.636719 C 36.261719 8.902344 28.371094 1.011719 18.636719 1.011719 Z M 22.003906 29.027344 C 21.464844 29.128906 21.273438 28.796875 21.273438 28.511719 C 21.273438 28.160156 21.285156 27.011719 21.285156 25.585938 C 21.285156 24.589844 20.945312 23.9375 20.566406 23.609375 C 22.933594 23.34375 25.417969 22.441406 25.417969 18.34375 C 25.417969 17.179688 25.007812 16.226562 24.328125 15.480469 C 24.4375 15.210938 24.800781 14.125 24.222656 12.65625 C 24.222656 12.65625 23.332031 12.367188 21.300781 13.75 C 20.449219 13.515625 19.542969 13.394531 18.640625 13.390625 C 17.734375 13.394531 16.824219 13.515625 15.976562 13.75 C 13.949219 12.371094 13.054688 12.65625 13.054688 12.65625 C 12.476562 14.125 12.84375 15.210938 12.953125 15.480469 C 12.269531 16.226562 11.855469 17.179688 11.855469 18.34375 C 11.855469 22.433594 14.339844 23.347656 16.699219 23.617188 C 16.394531 23.882812 16.121094 24.351562 16.023438 25.042969 C 15.417969 25.316406 13.878906 25.785156 12.929688 24.15625 C 12.929688 24.15625 12.371094 23.132812 11.304688 23.054688 C 11.304688 23.054688 10.265625 23.042969 11.230469 23.703125 C 11.230469 23.703125 11.925781 24.03125 12.410156 25.265625 C 12.410156 25.265625 13.035156 27.34375 15.992188 26.699219 C 15.996094 27.585938 16.007812 28.257812 16.007812 28.511719 C 16.007812 28.792969 15.8125 29.125 15.28125 29.027344 C 11.054688 27.617188 8.007812 23.617188 8.007812 18.902344 C 8.007812 13.007812 12.769531 8.230469 18.640625 8.230469 C 24.511719 8.230469 29.269531 13.007812 29.269531 18.902344 C 29.269531 23.613281 26.226562 27.613281 22.003906 29.027344 Z M 22.003906 29.027344 " fill-opacity="1" fill-rule="nonzero"/></g></svg>