<svg xmlns="http://www.w3.org/2000/svg" xmlns:xlink="http://www.w3.org/1999/xlink" width="50" zoomAndPan="magnify" viewBox="0 0 37.5 37.499999" height="50" preserveAspectRatio="xMidYMid meet" version="1.0"><defs><clipPath id="e26e744c16"><path d="M 1.949219 1.949219 L 35.699219 1.949219 L 35.699219 35.699219 L 1.949219 35.699219 Z M 1.949219 1.949219 " clip-rule="nonzero"/></clipPath></defs><g clip-path="url(#e26e744c16)"><path fill="#051b54" d="M 32.878906 1.949219 L 4.785156 1.949219 C 3.234375 1.949219 1.984375 3.214844 1.984375 4.753906 L 1.984375 32.898438 C 1.984375 34.449219 3.25 35.699219 4.785156 35.699219 L 32.863281 35.699219 C 34.417969 35.699219 35.667969 34.433594 35.667969 32.898438 L 35.667969 4.753906 C 35.683594 3.214844 34.433594 1.949219 32.878906 1.949219 Z M 11.960938 29.789062 L 6.980469 29.789062 L 6.980469 14.832031 L 11.960938 14.832031 Z M 9.464844 13.027344 C 7.894531 13.027344 6.625 11.757812 6.625 10.1875 C 6.625 8.617188 7.894531 7.351562 9.464844 7.351562 C 11.035156 7.351562 12.300781 8.617188 12.300781 10.1875 C 12.300781 11.757812 11.035156 13.027344 9.464844 13.027344 Z M 30.703125 29.789062 L 25.703125 29.789062 L 25.585938 20.910156 C 25.585938 20.910156 25.703125 18.546875 23.121094 18.5625 C 20.539062 18.582031 20.183594 20.910156 20.183594 20.910156 L 20.183594 29.789062 L 15.152344 29.789062 L 15.152344 14.832031 L 19.980469 14.832031 L 19.980469 16.890625 C 19.980469 16.890625 20.183594 16.214844 21.296875 15.421875 C 22.414062 14.628906 24.253906 14.460938 25.046875 14.496094 C 25.839844 14.527344 26.921875 14.394531 28.726562 15.640625 C 30.667969 16.976562 30.71875 20.472656 30.71875 20.472656 Z M 30.703125 29.789062 " fill-opacity="1" fill-rule="nonzero"/></g></svg>